<svg fill="none" width="100px" height="100px" xmlns="http://www.w3.org/2000/svg">
<path fill-rule="evenodd" clip-rule="evenodd" d="M68.8529 18.2647C65.9444 17.601 63.1395 16.9609 60.5808 16.252C54.6651 14.6131 49.3241 12.4339 46.778 7.92686C46.2593 7.00876 46.6033 5.85515 47.5463 5.35019C48.4893 4.84524 49.6742 5.18016 50.1929 6.09826C51.8885 9.09973 55.7057 10.9564 61.6475 12.6025C64.1101 13.2847 66.8105 13.9011 69.7228 14.5659C70.251 14.6864 70.7862 14.8086 71.3281 14.933C74.8351 15.7381 78.5879 16.63 82.4137 17.7761C92.9945 20.9457 99.0814 26.4309 102.356 32.5856C105.526 38.5416 105.953 44.9185 105.596 49.9922C110.327 53.9127 113.874 58.9103 115.772 64.4109C118.356 71.9023 117.865 80.3013 113.165 88.0597C108.479 95.7965 99.7151 102.727 86.0586 107.573C85.0474 107.932 83.929 107.424 83.5605 106.44C83.1919 105.455 83.7129 104.367 84.724 104.008C97.7832 99.3737 105.7 92.914 109.808 86.1321C113.904 79.3717 114.321 72.1232 112.077 65.6191C107.606 52.6574 92.5001 42.5562 74.4847 45.834C70.2276 54.5101 61.131 60.5041 50.5964 60.5041C44.6616 60.5041 39.1832 58.6018 34.7694 55.3893C22.2043 60.2354 14.2124 67.136 10.0715 74.362C5.89664 81.6473 5.57499 89.3482 8.48417 95.9445C14.2659 109.054 33.4988 118.793 63.4955 110.473C64.5305 110.186 65.6086 110.77 65.9035 111.778C66.1983 112.785 65.5983 113.835 64.5633 114.122C33.5418 122.727 11.7654 113.002 4.90302 97.4416C1.49014 89.7032 1.93775 80.7678 6.66804 72.5133C7.812 70.5171 9.20281 68.5657 10.8447 66.6821C10.7236 66.5169 10.6278 66.3298 10.5645 66.1245C-0.768417 29.3455 23.2931 7.19928 36.0728 2.7843C37.087 2.43391 38.201 2.95036 38.5609 3.93784C38.9208 4.92532 38.3903 6.00987 37.376 6.36026C26.7278 10.0389 5.57839 28.7634 13.1019 60.6436C13.3289 61.6054 13.582 62.5792 13.8622 63.565C14.5733 62.9007 15.319 62.2473 16.0993 61.6062C19.6445 58.6935 23.9069 56.0319 28.9066 53.7295C29.7547 53.3389 30.624 52.9587 31.5147 52.5894C30.8526 51.9185 30.2275 51.2127 29.6425 50.4753C26.1907 46.1236 24.1371 40.667 24.1371 34.7435C24.1371 24.657 31.0592 18.0822 39.0176 13.9282C39.254 13.7576 39.5338 13.6366 39.8435 13.5842C40.9038 13.4047 41.9128 14.096 42.0972 15.1283C42.1483 15.4141 42.4442 16.1633 43.2938 17.2143C44.1104 18.2245 45.3538 19.4063 47.1073 20.5706C50.6044 22.8928 56.1164 25.1349 64.2254 25.7868C75.1669 26.6663 81.7457 30.4672 85.7447 34.4559C87.7262 36.4322 89.0309 38.4113 89.9138 40.0081C90.3542 40.8046 90.6892 41.5055 90.9427 42.0457L91.0389 42.251C91.1167 42.4173 91.182 42.5567 91.242 42.681C94.0226 43.4069 96.6546 44.4273 99.1001 45.6954C100.029 46.1769 100.93 46.6941 101.803 47.2445C101.809 46.2038 101.77 45.1339 101.671 44.0478C101.382 40.8408 100.578 37.4918 98.8959 34.331C96.1533 29.1769 90.9611 24.3066 81.2676 21.4027C77.574 20.2962 73.9279 19.4283 70.4337 18.6261C69.9093 18.5057 69.3874 18.3866 68.8687 18.2683L68.8529 18.2647ZM98.7966 42.5655C98.429 40.1976 97.7251 37.8256 96.5344 35.588C94.1698 31.1443 89.6007 26.6919 80.5 23.9656C76.8953 22.8858 73.321 22.034 69.8352 21.2337C69.3108 21.1134 68.7887 20.9942 68.2679 20.8754L68.2621 20.874L68.2578 20.8731L68.2214 20.8648C65.3394 20.2071 62.4847 19.5557 59.8667 18.8304C53.9819 17.2001 47.5903 14.8038 44.4489 9.2429C43.1734 6.98507 44.0504 4.18741 46.2836 2.99156C48.4772 1.81692 51.2711 2.56779 52.522 4.78221C53.6212 6.72794 56.384 8.36811 62.3616 10.0241C64.7538 10.6869 67.391 11.2894 70.3181 11.9575C70.846 12.078 71.3828 12.2005 71.9267 12.3254C75.4421 13.1324 79.2667 14.0404 83.1813 15.2131C94.3543 18.5602 101.065 24.4631 104.718 31.3286C107.923 37.3519 108.549 43.6902 108.34 48.8232C112.908 52.8924 116.375 57.9557 118.301 63.5383C121.132 71.7439 120.585 80.9749 115.453 89.446C110.359 97.8565 101.007 105.107 86.9531 110.094C84.6144 110.924 81.953 109.776 81.0551 107.378C80.1437 104.943 81.4593 102.327 83.8295 101.486C96.4907 96.9935 103.82 90.8544 107.52 84.7458C111.184 78.6977 111.546 72.2811 109.548 66.4917C105.63 55.1341 92.4363 45.8937 76.2363 48.2576C71.3007 57.1618 61.6532 63.1795 50.5964 63.1795C47.8928 63.1795 45.2731 62.8196 42.7859 62.1455C43.0107 62.5012 43.1901 62.8954 43.3135 63.3235C44.0339 65.8226 42.5166 68.324 40.0984 68.9847L39.3934 66.4039C40.4296 66.1207 41.0338 65.0734 40.7431 64.0646C40.4523 63.0558 39.3765 62.4675 38.3404 62.7506C20.9847 67.4926 13.5657 82.3085 19.836 93.523C22.929 99.0549 29.1966 103.237 38.4045 104.603C47.5916 105.966 59.7835 104.553 75.0785 98.9026C76.0848 98.5309 76.591 97.4354 76.2092 96.4557C76.0599 96.0727 75.7969 95.764 75.4718 95.5524C74.9087 95.0311 74.0539 94.8688 73.3067 95.2072C68.0085 97.6064 61.169 99.1477 55.4965 98.6741C52.6722 98.4383 50.2711 97.7148 48.4875 96.4808C46.7516 95.2798 45.491 93.524 45.0032 90.9516C43.6901 84.0269 48.3514 78.6884 55.4626 74.6593C60.6749 71.7061 66.8141 69.7082 71.6643 68.55C72.5906 68.3288 73.47 68.1383 74.2868 67.9776C74.3011 68.0928 74.3171 68.2077 74.335 68.3222C74.3952 68.7078 74.4774 69.0919 74.5808 69.4717C75.8263 74.0498 80.1368 78.0212 85.8772 76.9304C86.9335 76.7297 87.6227 75.7333 87.4165 74.7049C87.2103 73.6765 86.1869 73.0056 85.1306 73.2063C81.7071 73.8568 78.7437 71.3111 78.188 67.752L80.8312 67.3393C81.2068 69.7452 83.0112 70.8857 84.6313 70.5779C87.0676 70.1149 89.5329 71.6519 90.0395 74.179C90.5506 76.7286 88.8317 79.0923 86.3766 79.5588C79.3594 80.8923 74.1803 76.3616 72.3105 71.1463C67.6248 72.2633 61.7245 74.1863 56.7812 76.9871C49.9151 80.8774 46.6574 85.316 47.6315 90.4531C47.9877 92.3317 48.8489 93.4776 50.0095 94.2806C51.2864 95.164 53.1873 95.7966 55.719 96.008C60.8351 96.4351 67.2158 95.0284 72.2032 92.77C73.8797 92.0108 75.7871 92.324 77.1179 93.4383C77.8044 93.9348 78.3691 94.6308 78.7017 95.4842C79.6456 97.9062 78.366 100.54 76.0055 101.412C60.4431 107.161 47.7815 108.699 38.0119 107.25C28.2038 105.795 21.0962 101.259 17.5011 94.8287C13.8613 88.319 14.25 80.8111 17.903 74.387C21.5363 67.9975 28.3442 62.7236 37.573 60.1868C36.4844 59.655 35.4345 59.0587 34.4286 58.4027C23.057 63.0436 16.0206 69.3611 12.3925 75.6924C8.61498 82.2842 8.38575 89.0918 10.9318 94.8648C15.9549 106.254 33.4484 116.031 62.7805 107.895C65.1704 107.232 67.7495 108.561 68.4709 111.026C69.2014 113.522 67.6943 116.03 65.2782 116.7C33.6045 125.486 10.0802 115.81 2.45537 98.5213C-1.32085 89.959 -0.780279 80.1303 4.34704 71.183C5.32906 69.4693 6.47477 67.7946 7.7834 66.1703C2.20309 47.3941 5.48475 32.1466 11.9622 20.9757C18.4572 9.77468 28.1596 2.68749 35.1993 0.25548C37.5446 -0.554754 40.197 0.614538 41.0743 3.02161C41.9646 5.46443 40.6257 8.06818 38.2495 8.88908C33.4142 10.5595 25.6269 16.0031 20.2181 25.1265C15.3409 33.353 12.3979 44.5755 15.4134 58.7282C18.7744 56.1042 22.6807 53.7081 27.1337 51.6044C23.5743 46.8927 21.462 41.0607 21.462 34.7435C21.462 23.2493 29.3701 15.9804 37.643 11.6281C38.1634 11.2908 38.7574 11.0546 39.397 10.9463C41.7959 10.5401 44.1849 12.0593 44.7028 14.5145C44.715 14.5421 44.7345 14.5834 44.7632 14.638C44.8607 14.8232 45.0478 15.1285 45.3742 15.5323C46.0036 16.311 47.0383 17.3133 48.587 18.3417C51.662 20.3836 56.7268 22.4999 64.4397 23.1199C75.9575 24.0458 83.1475 28.0869 87.6338 32.5615C89.835 34.757 91.2825 36.9547 92.2549 38.7135C92.6119 39.3592 92.9041 39.9446 93.1378 40.431C95.1007 41.0087 96.9911 41.7251 98.7966 42.5655ZM74.5322 64.067C69.1637 65.0293 60.6103 67.3525 53.5023 71.3798C46.0058 75.6272 39.3881 82.2398 41.1706 91.6405C41.7284 94.5819 43.0834 96.8949 45.0101 98.6148C45.3946 98.958 45.8018 99.2776 46.23 99.5738C47.1493 100.21 48.1502 100.728 49.2088 101.144C47.7597 101.249 46.3711 101.296 45.0425 101.29C44.7001 101.289 44.3617 101.284 44.0273 101.275C42.2352 101.23 40.5571 101.085 38.9915 100.852C30.6971 99.6219 25.642 95.9709 23.259 91.7088C18.577 83.3351 23.5922 70.7211 39.3934 66.4039L40.0984 68.9847C25.3244 73.0213 22.0616 84.0855 25.5939 90.403C27.476 93.7692 31.6929 97.0649 39.3841 98.2059C39.9815 98.2945 40.5989 98.3698 41.2364 98.4307C39.9313 96.6687 39.0028 94.5672 38.5423 92.139C36.4183 80.9377 44.4613 73.4273 52.1837 69.052C58.9756 65.2038 66.9368 62.872 72.4918 61.7351C72.8895 60.7593 73.4154 59.81 74.0779 58.909C76.324 55.8544 79.8768 53.6953 84.4905 52.6706C95.7274 50.1747 104.73 57.1396 106.879 66.4732C109.078 76.0232 104.145 86.9431 90.9383 93.5074C88.7116 94.6141 85.9397 93.7826 84.757 91.5269C83.5519 89.2287 84.52 86.4619 86.7851 85.3361C96.9941 80.262 98.9306 73.1441 97.8622 68.5041C96.7488 63.6689 92.3702 60.2936 86.5174 61.5936C83.6299 62.2349 82.2252 63.3792 81.5571 64.2878C80.8809 65.2075 80.6653 66.2764 80.8312 67.3393L78.188 67.752C77.9216 66.0452 78.2686 64.2442 79.402 62.7028C80.53 61.1687 82.5564 59.7327 85.9374 58.9818C93.3113 57.3439 99.0463 61.7247 100.469 67.9037C101.872 73.9976 99.0478 82.2288 87.9757 87.732C87.0171 88.2084 86.6368 89.3512 87.1261 90.2844C87.6155 91.2176 88.7892 91.5879 89.7477 91.1115C102.1 84.9722 106.135 75.1621 104.272 67.0736C102.429 59.0701 94.7731 53.1273 85.0705 55.2824C80.9484 56.198 78.0181 58.0663 76.233 60.494C75.4051 61.6199 74.8493 62.8319 74.5322 64.067ZM77.0277 35.9374C76.9793 36.9696 76.8686 37.9859 76.699 38.9829C76.5391 39.9233 76.3268 40.8465 76.0653 41.7496C77.0203 41.6284 77.9676 41.5411 78.9062 41.4863C80.3374 41.4028 81.7484 41.3949 83.1355 41.4582C84.2568 41.5093 85.3625 41.6069 86.4506 41.7486C85.9762 40.8779 85.3693 39.9049 84.535 38.863C84.0811 38.296 83.5597 37.7087 82.9559 37.1064C82.0672 36.22 81.0053 35.3226 79.7308 34.4686C78.9197 33.9252 78.0226 33.3994 77.0293 32.9052C77.0557 33.411 77.0557 33.9665 77.0556 34.6567V34.7435C77.0556 35.1436 77.0462 35.5417 77.0277 35.9374ZM79.5781 37.6705C79.5391 38.0426 79.4927 38.4127 79.4391 38.7806C79.8959 38.7611 80.3508 38.7489 80.8038 38.7437C80.4313 38.3871 80.0241 38.0277 79.5781 37.6705ZM38.5711 21.7442C33.6434 25.1137 30.7096 29.3328 30.7096 34.7435C30.7096 45.3302 39.545 54.0342 50.5964 54.0342C61.6477 54.0342 70.4831 45.3302 70.4831 34.7435C70.4831 33.9979 70.48 33.5935 70.4704 33.3342C68.5124 32.8286 66.2669 32.4423 63.6903 32.2352C54.5908 31.5037 47.9688 28.9471 43.4316 25.9342C41.4136 24.5942 39.7988 23.1571 38.5711 21.7442ZM36.9784 19.5939C31.6445 23.2715 28.0344 28.1783 28.0344 34.7435C28.0344 46.8751 38.1357 56.7097 50.5964 56.7097C63.057 56.7097 73.1583 46.8751 73.1583 34.7435C73.1583 33.5705 73.1544 33.0778 73.0961 32.6181C73.0508 32.261 72.9686 31.8975 72.7748 31.2094C70.2779 30.4292 67.3479 29.8451 63.9047 29.5683C55.2011 28.8687 49.0264 26.4378 44.9113 23.7053C42.8587 22.3424 41.3147 20.9014 40.2312 19.5609C39.8553 19.0959 39.5221 18.6271 39.2397 18.1639C38.7905 18.425 38.3502 18.6932 37.9197 18.9687C37.6004 19.173 37.2865 19.3814 36.9784 19.5939Z" fill="url(#paint0_linear_120_77)"/>
<defs>
<linearGradient id="paint0_linear_120_77" x1="60.0002" y1="2.67456" x2="60.0002" y2="117.336" gradientUnits="userSpaceOnUse">
<stop stop-color="#FF5995"/>
<stop offset="1" stop-color="#5379FF"/>
</linearGradient>
</defs>
</svg>
