<svg width="131" height="136" viewBox="0 0 131 136" fill="none" xmlns="http://www.w3.org/2000/svg">
<path fill-rule="evenodd" clip-rule="evenodd" d="M100.209 47.7147C100.302 47.9196 100.379 48.0884 100.45 48.2384C100.496 48.3363 100.533 48.4115 100.563 48.4695L100.569 48.4819C104.641 49.6819 108.404 51.4909 111.758 53.7752C112.543 54.3099 113.306 54.8707 114.045 55.4558C114.07 54.5292 114.067 53.5597 114.026 52.5579C113.846 48.0555 112.932 42.8998 110.622 38.0418C107.447 31.3659 101.591 25.1375 91.0325 21.8888C86.9667 20.6378 82.9532 19.6565 79.1068 18.7495C78.5237 18.612 77.9434 18.476 77.3667 18.3408C74.1652 17.5905 71.0776 16.8668 68.2611 16.0653C61.7492 14.2123 55.87 11.7485 53.0673 6.65269C52.4964 5.61466 52.8751 4.31036 53.9131 3.73945C54.9511 3.16854 56.2554 3.54721 56.8264 4.58523C58.6928 7.97877 62.8947 10.0779 69.4352 11.9391C72.1459 12.7104 75.1184 13.4073 78.3242 14.1588C78.9054 14.2951 79.495 14.4333 80.0914 14.574C83.9518 15.4843 88.0828 16.4927 92.2941 17.7885C104.053 21.4066 110.829 28.488 114.496 36.1996C118.126 43.8336 118.662 51.9698 118.219 57.7983C118.188 58.2006 118.049 58.5685 117.831 58.8752C121.894 63.0566 124.939 68.0695 126.653 73.4931C129.378 82.1192 128.726 91.7641 123.48 100.646C118.246 109.51 108.551 117.43 93.5104 122.912C92.3973 123.318 91.1661 122.744 90.7605 121.631C90.3548 120.518 90.9282 119.287 92.0413 118.881C106.408 113.645 115.181 106.262 119.786 98.4646C124.38 90.6855 124.94 82.3109 122.562 74.7856C117.827 59.7998 101.402 48.1049 81.616 51.7972C76.9299 61.6065 66.9166 68.3834 55.3204 68.3834C48.7876 68.3834 42.7572 66.2326 37.8986 62.6005C24.0715 68.0787 15.3148 75.9002 10.8107 84.0983C6.26952 92.3635 5.9793 101.118 9.2545 108.631C15.7663 123.568 37.1031 134.66 70.1087 125.257C71.248 124.932 72.4348 125.593 72.7593 126.732C73.0839 127.871 72.4235 129.058 71.2841 129.383C37.1227 139.115 13.0231 128.011 5.32188 110.345C1.49062 101.557 1.89984 91.4076 7.05072 82.0325C8.2943 79.769 9.81004 77.557 11.6028 75.4224C11.4505 75.2227 11.3309 74.9927 11.2545 74.738C-1.22046 33.1548 25.2657 8.11576 39.3332 3.12408C40.4497 2.72791 41.6759 3.31183 42.0721 4.42829C42.4682 5.54476 41.8843 6.77098 40.7679 7.16714C28.959 11.3574 5.41719 32.8141 14.2386 69.352C14.4412 70.1909 14.6608 71.0378 14.8979 71.8926C15.5107 71.2994 16.1471 70.7141 16.8072 70.1372C20.9536 66.5139 26.0383 63.2231 32.0911 60.4233C32.8188 60.0867 33.5604 59.7572 34.3161 59.4351C33.7572 58.8534 33.2222 58.2486 32.7127 57.6221C28.6376 52.6114 26.1948 46.2199 26.1948 39.2579C26.1948 27.7977 33.8897 20.3472 42.7043 15.6545C42.944 15.5104 43.2035 15.4182 43.468 15.3761C44.2907 15.2412 45.1412 15.5983 45.6118 16.3218C45.7143 16.4554 45.8227 16.5988 45.9379 16.7511L45.9398 16.7536C47.0964 18.2836 48.9336 20.7137 52.2641 23.0726C56.0329 25.7419 61.8044 28.3659 70.6931 29.0999C82.7372 30.0943 89.9789 34.3917 94.3809 38.9014C96.5621 41.1358 97.9982 43.3735 98.9701 45.1789C99.4549 46.0794 99.8236 46.8718 100.103 47.4826L100.209 47.7147ZM47.7722 15.3635L47.7726 15.364L47.7741 15.366L47.7745 15.3666C48.8981 16.8528 50.5621 19.0486 53.5935 21.1957C57.0109 23.6161 62.3849 26.106 70.8823 26.8077C83.4381 27.8444 91.2101 32.3604 96.0268 37.2948C98.3938 39.7197 99.9494 42.1458 100.995 44.0887C101.516 45.0555 101.909 45.9016 102.195 46.5266L102.195 46.5282L102.221 46.5843C105.581 47.6652 108.732 49.1412 111.624 50.9432C111.309 47.1202 110.411 42.9537 108.545 39.0295C105.634 32.909 100.271 27.1379 90.3561 24.0871C86.3683 22.8601 82.4179 21.8933 78.579 20.9881C77.9976 20.851 77.4188 20.7154 76.8419 20.5802L76.8099 20.5727C73.6317 19.8277 70.5003 19.0938 67.6316 18.2775C61.1332 16.4284 54.3563 13.7688 51.052 7.7611C49.869 5.61005 50.6537 2.90722 52.8047 1.72415C54.9557 0.541081 57.6586 1.32578 58.8416 3.47682C60.2056 5.95677 63.5065 7.86072 70.0647 9.72688C72.7135 10.4806 75.6305 11.165 78.8491 11.9196C79.4302 12.0558 80.0212 12.1943 80.6193 12.3354C84.4872 13.2474 88.6812 14.2704 92.9705 15.5902C105.373 19.4063 112.642 26.9452 116.573 35.2119C120.428 43.3181 120.975 51.887 120.512 57.9725C120.503 58.0924 120.489 58.211 120.471 58.328C124.28 62.5346 127.162 67.4722 128.846 72.8001C131.758 82.0163 131.055 92.3422 125.461 101.816C119.888 111.251 109.7 119.459 94.298 125.073C91.9915 125.913 89.4402 124.725 88.5995 122.419C87.7589 120.112 88.9472 117.561 91.2537 116.72C105.259 111.616 113.538 104.521 117.806 97.295C122.051 90.1071 122.56 82.4135 120.369 75.4786C116.067 61.8645 101.274 51.0227 83.1504 53.8671C77.8936 63.8612 67.4058 70.6834 55.3204 70.6834C48.7456 70.6834 42.6372 68.6619 37.59 65.2073C24.8214 70.5021 16.8961 77.7986 12.8264 85.2058C8.61232 92.8759 8.38571 100.883 11.3629 107.712C17.2386 121.19 37.0979 132.27 69.4785 123.045C71.8395 122.372 74.2987 123.741 74.9713 126.102C75.644 128.463 74.2753 130.922 71.9143 131.595C37.1381 141.502 11.5539 130.397 3.21351 111.265C-0.915946 101.792 -0.44275 90.8949 5.03493 80.9249C6.13983 78.9139 7.44335 76.9484 8.94574 75.0436C-3.67795 32.3199 23.5654 6.27859 38.5641 0.956491C40.8777 0.135544 43.4187 1.34557 44.2397 3.65916C45.0606 5.97274 43.8506 8.51378 41.537 9.33473C30.7918 13.1475 8.48011 33.1226 16.1998 67.6307C20.2143 64.2721 24.9964 61.227 30.5534 58.6032C26.3828 53.2705 23.8948 46.5529 23.8948 39.2579C23.8948 26.5789 32.4517 18.5183 41.5796 13.6477C42.059 13.3697 42.5756 13.1899 43.101 13.1056C44.7697 12.834 46.4936 13.5362 47.482 14.981C47.5752 15.103 47.6716 15.2305 47.7683 15.3584L47.7722 15.3635ZM50.7032 112.689C50.6398 112.645 50.5767 112.601 50.514 112.557C47.6805 110.543 45.6813 107.576 44.9448 103.587C43.0062 93.0863 49.2176 85.9712 56.735 81.4617C64.0327 77.084 73.0384 74.8121 78.8056 73.829C80.5418 70.3419 84.0604 67.4056 89.4292 66.1808C100.109 63.7442 108.537 70.4633 110.566 79.5122C112.616 88.6572 108.174 99.7488 94.5777 106.69C93.5226 107.229 92.2306 106.81 91.6919 105.755C91.1533 104.7 91.572 103.408 92.6271 102.869C104.815 96.647 107.924 87.3406 106.379 80.4506C104.813 73.4645 98.5004 68.5115 90.3834 70.3633C83.1764 72.0075 81.1315 77.1304 82.0182 80.9804C82.4772 82.9734 83.7193 84.7226 85.6064 85.7444C87.477 86.7572 90.1855 87.1611 93.7496 86.0621C94.8817 85.7131 96.0823 86.3478 96.4314 87.4799C96.7805 88.612 96.1457 89.8127 95.0136 90.1618C90.5488 91.5384 86.6187 91.1711 83.5637 89.5169C80.5253 87.8717 78.555 85.0581 77.8376 81.9433C77.7471 81.5505 77.6765 81.1543 77.6258 80.756C77.5274 79.9826 77.5041 79.2015 77.5565 78.4232C76.814 78.5717 76.0365 78.739 75.2326 78.9264C70.161 80.1082 64.0332 82.0864 58.9419 85.1406C52.1393 89.2213 47.6946 94.8509 49.1636 102.808C49.7005 105.716 51.0882 107.702 52.999 109.06C54.9624 110.455 57.6054 111.273 60.7143 111.539C66.9585 112.075 74.4872 110.332 80.3192 107.62C81.1417 107.237 82.0825 107.42 82.7024 108.01C83.0461 108.239 83.3272 108.571 83.495 108.982C83.9423 110.079 83.4156 111.331 82.3186 111.778C50.0224 124.947 30.5642 119.084 23.5675 107.063C16.6382 95.1574 23.1587 78.9234 39.4114 74.8602C40.5607 74.5729 41.7253 75.2717 42.0127 76.421C42.3 77.5703 41.6012 78.7349 40.4519 79.0222C26.6742 82.4666 21.9334 95.7267 27.2752 104.904C30.4708 110.395 37.7303 115.058 50.0295 114.996C51.5765 114.989 53.2032 114.906 54.9116 114.741C53.4047 114.243 51.9848 113.569 50.7032 112.689ZM47.0413 112.612C44.8575 110.395 43.3316 107.518 42.683 104.004C40.4918 92.1353 47.6574 84.225 55.5519 79.4893C62.7431 75.1756 71.415 72.8543 77.3217 71.7572C79.542 68.0759 83.4653 65.1822 88.9176 63.9384C100.977 61.1872 110.535 68.8594 112.81 79.009C115.132 89.366 109.972 101.413 95.6235 108.738C93.437 109.855 90.7597 108.987 89.6434 106.801C88.5272 104.614 89.3948 101.937 91.5813 100.821C103.01 94.9859 105.41 86.6383 104.135 80.9538C102.818 75.0805 97.6443 71.066 90.895 72.6057C87.7658 73.3196 86.0053 74.7205 85.084 76.1135C84.147 77.5302 83.9507 79.1233 84.2595 80.4642C84.5798 81.8548 85.431 83.0339 86.7015 83.7218C87.9382 84.3914 89.9921 84.8139 93.0719 83.8642C95.4178 83.1409 97.906 84.4563 98.6293 86.8022C99.3526 89.1482 98.0372 91.6363 95.6913 92.3596L95.0136 90.1618L95.6913 92.3596C90.7446 93.8849 86.1594 93.5379 82.4686 91.5395C78.8123 89.5598 76.452 86.1752 75.5963 82.4595C75.5045 82.0612 75.4299 81.6598 75.3725 81.2565C70.52 82.4147 64.8186 84.2974 60.125 87.1129C56.9115 89.0406 54.4318 91.2329 52.914 93.7191C51.431 96.1481 50.7938 98.9695 51.4254 102.391C51.8553 104.719 52.9151 106.178 54.3313 107.185C55.8564 108.269 58.0624 109.004 60.9108 109.248C66.663 109.741 73.7876 108.121 79.3492 105.534C80.9934 104.769 82.8607 105.098 84.1411 106.21C84.7814 106.68 85.3046 107.329 85.6247 108.114C86.5516 110.387 85.4603 112.981 83.1871 113.908C50.635 127.182 29.5026 121.832 21.5797 108.22C13.7956 94.8459 21.2814 77.0219 38.8536 72.6289C41.2352 72.0335 43.6486 73.4815 44.244 75.8631C44.8394 78.2448 43.3914 80.6581 41.0097 81.2535C28.5682 84.3639 24.7677 96.0241 29.263 103.747C31.6951 107.926 37.2124 111.978 47.0413 112.612ZM90.6238 44.5509C90.33 44.2085 90.0114 43.8594 89.6651 43.5046C88.8439 42.6634 87.8673 41.806 86.6995 40.9797C86.6333 42.2048 86.4968 43.4118 86.2939 44.5966C87.7562 44.5111 89.2005 44.4971 90.6238 44.5509ZM93.7096 44.7764C94.3416 45.6773 94.833 46.5231 95.2359 47.2949C94.3024 47.1521 93.3565 47.0405 92.3991 46.9614C90.2537 46.784 88.0507 46.7698 85.8012 46.9339C84.9917 46.993 84.1762 47.0751 83.3553 47.1811C83.5758 46.3993 83.7645 45.6042 83.9199 44.7972C84.2462 43.1024 84.4256 41.3553 84.4443 39.5697C84.4454 39.4659 84.446 39.3619 84.446 39.2579L84.446 39.1598C84.446 38.2765 84.4461 37.5884 84.4039 36.9559C85.2427 37.3687 86.0212 37.8027 86.744 38.2511C88.6101 39.4088 90.1053 40.6629 91.311 41.8981C92.2897 42.9007 93.0713 43.8666 93.7096 44.7764ZM77.7761 36.944C75.5706 36.3548 73.045 35.9066 70.1508 35.6676C60.1415 34.8411 53.2308 31.8328 48.4552 28.4504C45.9396 26.6687 44.0788 24.8218 42.7288 23.279C36.6254 27.2577 32.7849 32.418 32.7849 39.2579C32.7849 51.7039 42.8744 61.7934 55.3204 61.7934C67.7664 61.7934 77.8559 51.7039 77.8559 39.2579C77.8559 37.8785 77.8477 37.4843 77.8048 37.1368C77.7975 37.0775 77.7886 37.0155 77.7761 36.944ZM79.6891 35.1005C77.0323 34.2837 73.9412 33.6727 70.34 33.3754C60.7219 32.5812 54.2088 29.707 49.7845 26.5735C46.5696 24.2964 44.505 21.9059 43.2278 20.2719C35.8045 24.5916 30.4849 30.6698 30.4849 39.2579C30.4849 52.9741 41.6041 64.0934 55.3204 64.0934C69.0367 64.0934 80.1559 52.9741 80.1559 39.2579C80.1559 37.9317 80.1517 37.3747 80.0875 36.8549C80.0343 36.4241 79.9348 35.9849 79.6891 35.1005Z" fill="url(#paint0_linear_204_88)"/>
<defs>
<linearGradient id="paint0_linear_204_88" x1="65.5" y1="3" x2="65.5" y2="133" gradientUnits="userSpaceOnUse">
<stop stop-color="#FF5995"/>
<stop offset="1" stop-color="#5379FF"/>
</linearGradient>
</defs>
</svg>
