<svg width="134" height="134" viewBox="0 0 134 134" fill="none" xmlns="http://www.w3.org/2000/svg">
<path d="M133.926 67.1925C133.926 103.99 104.097 133.82 67.2994 133.82C30.5023 133.82 0.672363 103.99 0.672363 67.1925C0.672363 50.0327 7.51295 34.1142 18.1686 22.3032C16.9315 35.0278 20.1126 48.292 27.0051 57.6587C25.812 61.5121 27.0051 62.947 27.0051 67.1925C27.0051 89.9345 44.5574 107.664 67.2994 107.664C90.0414 107.664 107.77 89.9345 107.77 67.1925C107.77 55.0539 101.988 44.1548 93.6321 36.6183C64.5895 10.4238 30.8541 35.6695 50.5031 59.9019C52.7309 62.294 55.2864 64.7267 58.1944 67.1925C55.0405 64.8093 52.497 62.3608 50.5031 59.9019C12.1451 18.7127 70.9507 -10.4786 100.348 9.32648C120.409 20.8084 133.926 42.4218 133.926 67.1925Z" fill="url(#paint0_linear_120_65)"/>
<path d="M31.0699 17.5315C44.8662 -6.11928 82.8444 0.763846 92.918 5.53554C51.0331 -3.83112 29.5632 38.2842 58.1934 67.0911L62.9195 37.8799V72.4826L83.4547 87.6037L59.1228 77.625C29.7857 63.8401 24.8843 28.1353 31.0699 17.5315Z" fill="url(#paint1_linear_120_65)"/>
<path d="M8.09501 63.4812C11.4529 90.5208 32.8371 111.728 67.2994 110.315C72.0122 109.961 83.2056 107.472 91.5472 99.8376C86.7783 103.505 76.4893 107.664 67.2994 107.664C44.5574 107.664 27.0051 89.9345 27.0051 67.1925C27.0051 62.947 26.6394 61.3087 27.0051 57.7683C20.1126 48.4016 16.9315 35.0278 18.1686 22.3032C11.8063 33.7907 6.50444 41.9202 8.09501 63.4812Z" fill="url(#paint2_linear_120_65)"/>
<path d="M108.902 32.4231C135.064 59.3254 123.436 112.748 76.1278 121.846C35.0135 129.753 7.90909 94.6374 7.90909 60.8869C12.1415 81.1395 21.8453 96.4854 34.2006 103.356C39.1966 105.806 47.5455 108.751 50.5263 109.255C66.3499 111.932 73.6405 109.793 82.4316 105.902C89.4285 102.58 95.216 97.8349 100.417 91.0619C107.371 82.0056 109.16 68.1241 106.334 56.8221C102.525 41.5835 87.5536 28.751 74.4538 26.2113C61.354 23.6715 52.306 27.1061 45.3913 38.972C60.7572 2.70854 89.7393 12.718 108.902 32.4231Z" fill="url(#paint3_linear_120_65)"/>
<defs>
<linearGradient id="paint0_linear_120_65" x1="17.886" y1="21.1305" x2="117.952" y2="109.6" gradientUnits="userSpaceOnUse">
<stop stop-color="#FFCF53"/>
<stop offset="0.494792" stop-color="#FF5995"/>
<stop offset="1" stop-color="#5379FF"/>
</linearGradient>
<linearGradient id="paint1_linear_120_65" x1="98.8766" y1="62.2565" x2="23.3746" y2="3.96917" gradientUnits="userSpaceOnUse">
<stop stop-color="#FFCF53"/>
<stop offset="1" stop-color="#FF5995"/>
</linearGradient>
<linearGradient id="paint2_linear_120_65" x1="-44.9998" y1="-51.7153" x2="209.575" y2="177.692" gradientUnits="userSpaceOnUse">
<stop offset="0.0208333" stop-color="#FFCF52"/>
<stop offset="0.671875" stop-color="#FF5995"/>
</linearGradient>
<linearGradient id="paint3_linear_120_65" x1="-17.6082" y1="-5.40066" x2="146.384" y2="105.185" gradientUnits="userSpaceOnUse">
<stop stop-color="white" stop-opacity="0.75"/>
<stop offset="1" stop-color="white" stop-opacity="0"/>
</linearGradient>
</defs>
</svg>
